<svg width="151" height="151" viewBox="0 0 151 151" fill="none" xmlns="http://www.w3.org/2000/svg">
<path fill-rule="evenodd" clip-rule="evenodd" d="M124.083 4.41406C123.049 4.41406 122.208 3.57294 122.208 2.53906C122.208 1.5051 123.049 0.664062 124.083 0.664062C125.117 0.664062 125.958 1.5051 125.958 2.53906C125.958 3.57294 125.117 4.41406 124.083 4.41406Z" fill="#ECECFE"/>
<path fill-rule="evenodd" clip-rule="evenodd" d="M9.70825 10.0391C8.67438 10.0391 7.83325 9.19794 7.83325 8.16406C7.83325 7.1301 8.67438 6.28906 9.70825 6.28906C10.7421 6.28906 11.5833 7.1301 11.5833 8.16406C11.5833 9.19794 10.7421 10.0391 9.70825 10.0391Z" fill="#ECECFE"/>
<path fill-rule="evenodd" clip-rule="evenodd" d="M2.20825 126.289C1.17438 126.289 0.333252 125.448 0.333252 124.414C0.333252 123.38 1.17438 122.539 2.20825 122.539C3.24213 122.539 4.08325 123.38 4.08325 124.414C4.08325 125.448 3.24213 126.289 2.20825 126.289Z" fill="#ECECFE"/>
<path fill-rule="evenodd" clip-rule="evenodd" d="M47.2083 94.4141C47.2083 93.3785 48.0477 92.5391 49.0833 92.5391H101.583C102.619 92.5391 103.458 93.3785 103.458 94.4141V116.914C103.458 117.95 102.619 118.789 101.583 118.789H49.0833C48.0477 118.789 47.2083 117.95 47.2083 116.914V94.4141ZM50.9583 96.2891V115.039H99.7083V96.2891H50.9583Z" fill="#68A532"/>
<path fill-rule="evenodd" clip-rule="evenodd" d="M71.5833 101.914C71.5833 100.879 72.4227 100.039 73.4583 100.039H92.2083C93.2438 100.039 94.0833 100.879 94.0833 101.914C94.0833 102.95 93.2438 103.789 92.2083 103.789H73.4583C72.4227 103.789 71.5833 102.95 71.5833 101.914Z" fill="#68A532"/>
<path fill-rule="evenodd" clip-rule="evenodd" d="M56.5833 101.914C56.5833 100.879 57.4227 100.039 58.4583 100.039H62.2083C63.2438 100.039 64.0833 100.879 64.0833 101.914C64.0833 102.95 63.2438 103.789 62.2083 103.789H58.4583C57.4227 103.789 56.5833 102.95 56.5833 101.914Z" fill="#68A532"/>
<path fill-rule="evenodd" clip-rule="evenodd" d="M56.5833 109.414C56.5833 108.379 57.4227 107.539 58.4583 107.539H69.7083C70.7438 107.539 71.5833 108.379 71.5833 109.414C71.5833 110.45 70.7438 111.289 69.7083 111.289H58.4583C57.4227 111.289 56.5833 110.45 56.5833 109.414Z" fill="#68A532"/>
<path fill-rule="evenodd" clip-rule="evenodd" d="M77.2083 109.414C77.2083 108.379 78.0477 107.539 79.0833 107.539C80.1188 107.539 80.9584 108.379 80.9584 109.414C80.9584 110.45 80.119 111.289 79.0834 111.289C78.0479 111.289 77.2083 110.45 77.2083 109.414Z" fill="#68A532"/>
<path fill-rule="evenodd" clip-rule="evenodd" d="M86.5833 109.414C86.5833 108.379 87.4227 107.539 88.4583 107.539H92.2083C93.2438 107.539 94.0833 108.379 94.0833 109.414C94.0833 110.45 93.2438 111.289 92.2083 111.289H88.4583C87.4227 111.289 86.5833 110.45 86.5833 109.414Z" fill="#68A532"/>
<path fill-rule="evenodd" clip-rule="evenodd" d="M22.8333 43.7891C22.8333 42.7535 23.6728 41.9141 24.7083 41.9141H125.958C126.994 41.9141 127.833 42.7535 127.833 43.7891V60.6641C127.833 61.6996 126.994 62.5391 125.958 62.5391H24.7083C23.6728 62.5391 22.8333 61.6996 22.8333 60.6641V43.7891ZM26.5833 45.6641V58.7891H124.083V45.6641H26.5833Z" fill="#000091"/>
<path fill-rule="evenodd" clip-rule="evenodd" d="M33.3431 31.2464C33.697 30.8746 34.1879 30.6641 34.7013 30.6641H115.965C116.479 30.6641 116.97 30.8746 117.323 31.2464L127.317 41.7464C127.834 42.2897 127.977 43.0887 127.682 43.778C127.386 44.4672 126.708 44.9141 125.958 44.9141H24.7083C23.9584 44.9141 23.2806 44.4672 22.985 43.778C22.6895 43.0887 22.8331 42.2897 23.3501 41.7464L33.3431 31.2464ZM35.5053 34.4141L29.0812 41.1641H121.585L115.161 34.4141H35.5053Z" fill="#000091"/>
<path fill-rule="evenodd" clip-rule="evenodd" d="M28.8272 60.6538C28.8328 59.6223 29.6706 58.7891 30.7021 58.7891H120.333C120.832 58.7891 121.311 58.988 121.663 59.3419C122.015 59.6957 122.211 60.1753 122.208 60.6743L121.839 128.174C121.834 129.206 120.996 130.039 119.964 130.039H30.3333C29.8342 130.039 29.3558 129.84 29.0039 129.486C28.6519 129.132 28.4556 128.653 28.4583 128.154L28.8272 60.6538ZM32.5669 62.5391L32.2186 126.289H118.1L118.448 62.5391H32.5669Z" fill="#000091"/>
<path fill-rule="evenodd" clip-rule="evenodd" d="M56.5833 71.9141C56.5833 70.8785 57.4228 70.0391 58.4583 70.0391H92.2083C93.2438 70.0391 94.0833 70.8785 94.0833 71.9141V85.0391C94.0833 86.0746 93.2438 86.9141 92.2083 86.9141H58.4583C57.4228 86.9141 56.5833 86.0746 56.5833 85.0391V71.9141ZM60.3333 73.7891V83.1641H90.3333V73.7891H60.3333Z" fill="#000091"/>
<path fill-rule="evenodd" clip-rule="evenodd" d="M39.7083 25.0391C39.7083 24.0035 40.5478 23.1641 41.5833 23.1641H86.5833C87.6188 23.1641 88.4583 24.0035 88.4583 25.0391C88.4583 26.0746 87.6188 26.9141 86.5833 26.9141H41.5833C40.5478 26.9141 39.7083 26.0746 39.7083 25.0391Z" fill="#000091"/>
<path fill-rule="evenodd" clip-rule="evenodd" d="M95.9583 25.0391C95.9583 24.0035 96.7978 23.1641 97.8333 23.1641H107.208C108.244 23.1641 109.083 24.0035 109.083 25.0391C109.083 26.0746 108.244 26.9141 107.208 26.9141H97.8333C96.7978 26.9141 95.9583 26.0746 95.9583 25.0391Z" fill="#000091"/>
</svg>
