<svg width="151" height="151" viewBox="0 0 151 151" fill="none" xmlns="http://www.w3.org/2000/svg">
<path fill-rule="evenodd" clip-rule="evenodd" d="M111.292 143.164C110.258 143.164 109.417 142.323 109.417 141.289C109.417 140.255 110.258 139.414 111.292 139.414C112.326 139.414 113.167 140.255 113.167 141.289C113.167 142.323 112.326 143.164 111.292 143.164Z" fill="#ECECFE"/>
<path fill-rule="evenodd" clip-rule="evenodd" d="M126.292 23.1641C125.258 23.1641 124.417 22.3229 124.417 21.2891C124.417 20.2551 125.258 19.4141 126.292 19.4141C127.326 19.4141 128.167 20.2551 128.167 21.2891C128.167 22.3229 127.326 23.1641 126.292 23.1641Z" fill="#ECECFE"/>
<path fill-rule="evenodd" clip-rule="evenodd" d="M17.5417 30.6641C16.5079 30.6641 15.6667 29.8229 15.6667 28.7891C15.6667 27.7551 16.5079 26.9141 17.5417 26.9141C18.5756 26.9141 19.4167 27.7551 19.4167 28.7891C19.4167 29.8229 18.5756 30.6641 17.5417 30.6641Z" fill="#ECECFE"/>
<path d="M70.0417 43.7891C70.0417 42.7535 69.2023 41.9141 68.1667 41.9141H45.6667L45.4481 41.9267C44.5156 42.035 43.7917 42.8275 43.7917 43.7891C43.7917 44.8246 44.6312 45.6641 45.6667 45.6641H68.1667L68.3854 45.6514C69.3179 45.5431 70.0417 44.7506 70.0417 43.7891Z" fill="#77B645"/>
<path d="M73.7917 75.6641C71.7207 75.6641 70.0417 77.343 70.0417 79.4141C70.0417 84.0773 71.933 86.9141 75.6667 86.9141C76.7023 86.9141 77.5417 86.0746 77.5417 85.0391C77.5417 84.0035 76.7023 83.1641 75.6667 83.1641L75.4903 83.1577C75.2665 83.1411 75.0653 83.0913 74.8865 83.0017C76.4235 82.5333 77.5417 81.1043 77.5417 79.4141C77.5417 77.343 75.8628 75.6641 73.7917 75.6641Z" fill="#77B645"/>
<path d="M81.2917 79.4141C81.2917 77.343 82.9707 75.6641 85.0417 75.6641C87.1128 75.6641 88.7917 77.343 88.7917 79.4141C88.7917 81.1043 87.6735 82.5333 86.1365 83.0017C86.3153 83.0913 86.5165 83.1411 86.7403 83.1577L86.9167 83.1641C87.9523 83.1641 88.7917 84.0035 88.7917 85.0391C88.7917 86.0746 87.9523 86.9141 86.9167 86.9141C83.183 86.9141 81.2917 84.0773 81.2917 79.4141Z" fill="#77B645"/>
<path d="M64.4167 49.4141C65.4523 49.4141 66.2917 50.2535 66.2917 51.2891C66.2917 52.2506 65.5679 53.0431 64.6354 53.1514L64.4167 53.1641H45.6667C44.6312 53.1641 43.7917 52.3246 43.7917 51.2891C43.7917 50.3275 44.5156 49.535 45.4481 49.4267L45.6667 49.4141H64.4167Z" fill="#77B645"/>
<path d="M58.7917 58.7891C58.7917 57.7535 57.9523 56.9141 56.9167 56.9141H45.6667L45.4481 56.9267C44.5156 57.035 43.7917 57.8275 43.7917 58.7891C43.7917 59.8246 44.6312 60.6641 45.6667 60.6641H56.9167L57.1354 60.6514C58.0679 60.5431 58.7917 59.7506 58.7917 58.7891Z" fill="#77B645"/>
<path d="M105.667 94.4141C106.702 94.4141 107.542 95.2535 107.542 96.2891C107.542 97.2506 106.818 98.0431 105.885 98.1514L105.667 98.1641H71.9167C70.8812 98.1641 70.0417 97.3246 70.0417 96.2891C70.0417 95.3275 70.7656 94.535 71.6981 94.4267L71.9167 94.4141H105.667Z" fill="#77B645"/>
<path d="M100.042 103.789C100.042 102.754 99.2023 101.914 98.1667 101.914H71.9167L71.6981 101.927C70.7656 102.035 70.0417 102.827 70.0417 103.789C70.0417 104.825 70.8812 105.664 71.9167 105.664H98.1667L98.3854 105.651C99.3179 105.543 100.042 104.751 100.042 103.789Z" fill="#77B645"/>
<path d="M60.6667 23.1641C73.5181 23.1641 83.7066 30.7711 88.6565 43.09C89.0426 44.0508 88.5767 45.1428 87.6158 45.5289C86.655 45.915 85.563 45.449 85.1769 44.4881C80.7739 33.5304 71.9124 26.9141 60.6667 26.9141C45.1337 26.9141 32.5417 39.5061 32.5417 55.0391C32.5417 61.0687 34.4417 66.807 37.915 71.5767C38.3554 72.1814 38.3901 72.9821 38.0238 73.6169L37.8869 73.8218L30.7174 83.1641H41.9167C42.8783 83.1641 43.6708 83.8879 43.7791 84.8204L43.7917 85.0391C43.7917 86.0006 43.0679 86.7931 42.1354 86.9014L41.9167 86.9141H26.9167C25.4328 86.9141 24.5642 85.2894 25.3113 84.069L25.4292 83.8977L34.0792 72.6228L33.9732 72.466C30.762 67.558 28.9533 61.8436 28.8021 55.857L28.7917 55.0391C28.7917 37.435 43.0627 23.1641 60.6667 23.1641Z" fill="#000091"/>
<path d="M88.7917 53.1641C109.502 53.1641 126.292 69.9534 126.292 90.6641C126.292 96.534 124.941 102.215 122.38 107.357C121.918 108.284 120.793 108.662 119.866 108.2C118.939 107.739 118.562 106.613 119.023 105.686C121.327 101.06 122.542 95.9507 122.542 90.6641C122.542 72.0245 107.431 56.9141 88.7917 56.9141C70.1521 56.9141 55.0417 72.0245 55.0417 90.6641C55.0417 109.097 69.8182 124.078 88.1718 124.408L88.7917 124.414H120.912L115.357 116.079C114.823 115.279 114.986 114.218 115.702 113.611L115.877 113.479C116.677 112.946 117.738 113.108 118.345 113.824L118.477 113.999L125.977 125.249C126.768 126.436 125.995 128.006 124.626 128.153L124.417 128.164H88.7917C68.0811 128.164 51.2917 111.375 51.2917 90.6641C51.2917 69.9534 68.0811 53.1641 88.7917 53.1641Z" fill="#000091"/>
<path d="M103.792 36.2891C103.792 37.3229 104.633 38.1641 105.667 38.1641C106.701 38.1641 107.542 37.3229 107.542 36.2891C107.542 35.2551 106.701 34.4141 105.667 34.4141C104.633 34.4141 103.792 35.2551 103.792 36.2891Z" fill="#000091"/>
<path d="M113.167 38.1641C112.133 38.1641 111.292 37.3229 111.292 36.2891C111.292 35.2551 112.133 34.4141 113.167 34.4141C114.201 34.4141 115.042 35.2551 115.042 36.2891C115.042 37.3229 114.201 38.1641 113.167 38.1641Z" fill="#000091"/>
<path d="M118.792 36.2891C118.792 37.3229 119.633 38.1641 120.667 38.1641C121.701 38.1641 122.542 37.3229 122.542 36.2891C122.542 35.2551 121.701 34.4141 120.667 34.4141C119.633 34.4141 118.792 35.2551 118.792 36.2891Z" fill="#000091"/>
<path fill-rule="evenodd" clip-rule="evenodd" d="M128.167 26.9141H98.1667C97.1312 26.9141 96.2917 27.7535 96.2917 28.7891V43.7891L96.3044 44.0077C96.4127 44.9402 97.2052 45.6641 98.1667 45.6641H112.389L119.341 52.6149L119.5 52.7576C120.694 53.7218 122.542 52.8869 122.542 51.2891V45.6641H128.167C129.202 45.6641 130.042 44.8246 130.042 43.7891V28.7891C130.042 27.7535 129.202 26.9141 128.167 26.9141ZM126.292 30.6641V41.9141H120.667L120.448 41.9267C119.516 42.035 118.792 42.8275 118.792 43.7891V46.7609L114.493 42.4632L114.307 42.3005C113.981 42.0512 113.581 41.9141 113.167 41.9141H100.042V30.6641H126.292Z" fill="#000091"/>
<path d="M30.6667 109.414C31.7023 109.414 32.5417 110.254 32.5417 111.289C32.5417 112.251 31.8179 113.043 30.8854 113.151L30.6667 113.164H23.1667C22.1312 113.164 21.2917 112.325 21.2917 111.289C21.2917 110.327 22.0156 109.535 22.9481 109.427L23.1667 109.414H30.6667Z" fill="#000091"/>
<path d="M36.2917 111.289C36.2917 112.323 37.1329 113.164 38.1667 113.164C39.2006 113.164 40.0417 112.323 40.0417 111.289C40.0417 110.255 39.2006 109.414 38.1667 109.414C37.1329 109.414 36.2917 110.255 36.2917 111.289Z" fill="#000091"/>
<path d="M45.6667 113.164C44.6329 113.164 43.7917 112.323 43.7917 111.289C43.7917 110.255 44.6329 109.414 45.6667 109.414C46.7006 109.414 47.5417 110.255 47.5417 111.289C47.5417 112.323 46.7006 113.164 45.6667 113.164Z" fill="#000091"/>
</svg>
