<svg width="150" height="151" viewBox="0 0 150 151" fill="none" xmlns="http://www.w3.org/2000/svg">
<path fill-rule="evenodd" clip-rule="evenodd" d="M31.875 15.6641C30.8411 15.6641 30 14.8229 30 13.7891C30 12.7551 30.8411 11.9141 31.875 11.9141C32.9089 11.9141 33.75 12.7551 33.75 13.7891C33.75 14.8229 32.9089 15.6641 31.875 15.6641Z" fill="#ECECFE"/>
<path fill-rule="evenodd" clip-rule="evenodd" d="M13.125 120.664C12.0911 120.664 11.25 119.823 11.25 118.789C11.25 117.755 12.0911 116.914 13.125 116.914C14.1589 116.914 15 117.755 15 118.789C15 119.823 14.1589 120.664 13.125 120.664Z" fill="#ECECFE"/>
<path fill-rule="evenodd" clip-rule="evenodd" d="M144.375 109.414C143.341 109.414 142.5 108.573 142.5 107.539C142.5 106.505 143.341 105.664 144.375 105.664C145.409 105.664 146.25 106.505 146.25 107.539C146.25 108.573 145.409 109.414 144.375 109.414Z" fill="#ECECFE"/>
<path fill-rule="evenodd" clip-rule="evenodd" d="M114.375 11.9141C113.341 11.9141 112.5 11.0729 112.5 10.0391C112.5 9.0051 113.341 8.16406 114.375 8.16406C115.409 8.16406 116.25 9.0051 116.25 10.0391C116.25 11.0729 115.409 11.9141 114.375 11.9141Z" fill="#ECECFE"/>
<path fill-rule="evenodd" clip-rule="evenodd" d="M73.125 79.4141C66.9118 79.4141 61.875 84.4509 61.875 90.6641C61.875 94.8282 64.1374 98.4638 67.5 100.409V107.539C67.5 110.646 70.0184 113.164 73.125 113.164C76.2316 113.164 78.75 110.646 78.75 107.539V100.409C82.1126 98.4638 84.375 94.8282 84.375 90.6641C84.375 84.4509 79.3382 79.4141 73.125 79.4141ZM73.125 98.1641C77.2671 98.1641 80.625 94.8062 80.625 90.6641C80.625 86.5219 77.2671 83.1641 73.125 83.1641C68.9829 83.1641 65.625 86.5219 65.625 90.6641C65.625 94.8062 68.9829 98.1641 73.125 98.1641ZM71.25 101.914V107.539C71.25 108.501 71.9738 109.293 72.9063 109.401L73.125 109.414C74.1605 109.414 75 108.575 75 107.539V101.914H71.25Z" fill="#68A532"/>
<path d="M110.126 117.892L109.955 119.711H107.666L107.277 115.654C110.101 115.359 111.952 114.744 111.952 112.654C111.952 111.375 110.978 110.49 109.712 110.49C108.421 110.49 107.618 111.178 106.717 112.531L104.062 110.883C105.426 108.695 107.277 107.539 109.858 107.539C112.731 107.539 115.312 109.531 115.312 112.654C115.312 115.531 113.145 117.375 110.126 117.892Z" fill="#000091"/>
<path d="M110.954 123.4C110.954 124.555 109.955 125.539 108.835 125.539C107.666 125.539 106.692 124.555 106.692 123.4C106.692 122.244 107.666 121.26 108.835 121.26C109.955 121.26 110.954 122.244 110.954 123.4Z" fill="#000091"/>
<path fill-rule="evenodd" clip-rule="evenodd" d="M73.125 19.4141C91.4461 19.4141 105 30.0202 105 46.0227C105 47.0582 104.161 47.8977 103.125 47.8977C102.089 47.8977 101.25 47.0582 101.25 46.0227C101.25 32.3206 89.5487 23.1641 73.125 23.1641C56.9294 23.1641 45.3259 32.068 45.0068 45.4544L45 46.0227V53.1641H52.5C55.6066 53.1641 58.125 55.6825 58.125 58.7891V62.5391C58.125 63.1965 58.0122 63.8276 57.8049 64.4141H88.4451C88.2378 63.8276 88.125 63.1965 88.125 62.5391V58.7891C88.125 55.6825 90.6434 53.1641 93.75 53.1641V46.8319C93.75 37.1662 85.1308 30.6641 72.9241 30.6641C62.2849 30.6641 54.1829 35.6892 52.4555 43.4783C52.2313 44.4893 51.23 45.1271 50.2191 44.9029C49.2081 44.6787 48.5703 43.6774 48.7945 42.6664C50.9492 32.9499 60.6808 26.9141 72.9241 26.9141C86.792 26.9141 97.1763 34.5868 97.4926 46.2808L97.5 46.8319V53.1641H103.125C106.232 53.1641 108.75 55.6825 108.75 58.7891V62.5391C108.75 63.1965 108.637 63.8276 108.43 64.4141H108.83C112.877 64.4141 116.052 68.0178 116.241 72.4196L116.25 72.8345V85.0391C116.25 86.0746 115.411 86.9141 114.375 86.9141C113.413 86.9141 112.621 86.1902 112.513 85.2577L112.5 85.0391V72.8345C112.5 70.3074 110.928 68.3416 109.083 68.1754L108.83 68.1641H33.6696C31.8031 68.1641 30.1499 70.02 30.0096 72.4935L30 72.8345V90.6641H43.125C44.1605 90.6641 45 91.5035 45 92.5391C45 93.5006 44.2762 94.2931 43.3437 94.4014L43.125 94.4141H30V105.664H41.25L41.5805 105.674C44.5333 105.845 46.875 108.293 46.875 111.289V124.414H91.5602C90.5567 122.117 90 119.581 90 116.914C90 106.559 98.3947 98.1641 108.75 98.1641C119.105 98.1641 127.5 106.559 127.5 116.914C127.5 127.269 119.105 135.664 108.75 135.664C102.616 135.664 97.1694 132.718 93.7486 128.164H33.6696C29.623 128.164 26.4476 124.56 26.2589 120.159L26.25 119.744V72.8345C26.25 68.3856 29.3028 64.647 33.2929 64.4245L33.6696 64.4141H37.8201C37.6128 63.8276 37.5 63.1965 37.5 62.5391V58.7891C37.5 56.3303 39.0775 54.24 41.2757 53.4751C41.2706 53.4446 41.2662 53.4138 41.2626 53.3827L41.25 53.1641V46.0227C41.25 30.0202 54.8039 19.4141 73.125 19.4141ZM103.125 64.4141C104.161 64.4141 105 63.5746 105 62.5391V58.7891C105 57.7535 104.161 56.9141 103.125 56.9141H93.75C92.7145 56.9141 91.875 57.7535 91.875 58.7891V62.5391C91.875 63.5746 92.7145 64.4141 93.75 64.4141H103.125ZM54.375 62.5391C54.375 63.5746 53.5355 64.4141 52.5 64.4141H43.125C42.0895 64.4141 41.25 63.5746 41.25 62.5391V58.7891C41.25 57.7535 42.0895 56.9141 43.125 56.9141H52.5C53.5355 56.9141 54.375 57.7535 54.375 58.7891V62.5391ZM30 119.744V109.414H41.25C42.2116 109.414 43.0041 110.138 43.1124 111.07L43.125 111.289V124.414H33.6696L33.4166 124.403C31.5721 124.237 30 122.271 30 119.744ZM108.75 101.914C117.034 101.914 123.75 108.63 123.75 116.914C123.75 125.198 117.034 131.914 108.75 131.914C100.466 131.914 93.75 125.198 93.75 116.914C93.75 108.63 100.466 101.914 108.75 101.914Z" fill="#000091"/>
<path d="M116.25 92.5391C116.25 93.5746 115.411 94.4141 114.375 94.4141C113.339 94.4141 112.5 93.5746 112.5 92.5391C112.5 91.5035 113.339 90.6641 114.375 90.6641C115.411 90.6641 116.25 91.5035 116.25 92.5391Z" fill="#000091"/>
<path d="M48.75 92.5391C48.75 91.5035 49.5895 90.6641 50.625 90.6641C51.6605 90.6641 52.5 91.5035 52.5 92.5391C52.5 93.5746 51.6605 94.4141 50.625 94.4141C49.5895 94.4141 48.75 93.5746 48.75 92.5391Z" fill="#000091"/>
</svg>
